<svg height="512pt" viewBox="-37 0 512 512" width="512pt" xmlns="http://www.w3.org/2000/svg"><path d="m173.5 255h30v-30h30v30h30v-30h30v-30h-30v-30h30v-30h-30v-30h-30v30h-30v-30h-30v30h-30v30h30v30h-30v30h30zm30-90h30v30h-30zm0 0"/><path d="m218.5 317c-49.789062 0-95.953125-24.824219-123.492188-66.40625l-25.015624 16.566406c33.113281 49.992188 88.628906 79.839844 148.507812 79.839844s115.394531-29.847656 148.507812-79.839844l-25.015624-16.5625c-27.539063 41.578125-73.707032 66.402344-123.492188 66.402344zm0 0"/><path d="m362 0h-287c-41.355469 0-75 33.644531-75 75v287c0 41.355469 33.644531 75 75 75h100.199219l43.300781 75 43.300781-75h100.199219c41.355469 0 75-33.644531 75-75v-287c0-41.355469-33.644531-75-75-75zm45 362c0 24.8125-20.1875 45-45 45h-117.519531l-25.980469 45-25.980469-45h-117.519531c-24.8125 0-45-20.1875-45-45v-287c0-24.8125 20.1875-45 45-45h287c24.8125 0 45 20.1875 45 45zm0 0"/></svg>