<svg height="512pt" viewBox="0 0 512 512" width="512pt" xmlns="http://www.w3.org/2000/svg"><path d="m196 296.410156-51.175781 8.394532c-25.394531 4.230468-43.824219 26.007812-43.824219 51.773437 0 28.949219 23.550781 52.5 52.5 52.5 2.84375 0 5.738281-.238281 8.605469-.714844l19.949219-3.15625.121093-.019531c25.394531-4.234375 43.824219-26.007812 43.824219-51.773438v-116.257812l125-20.789062v54.265624l-51.175781 8.394532c-25.394531 4.234375-43.824219 26.007812-43.824219 51.773437 0 28.949219 23.550781 52.5 52.5 52.5 2.847656 0 5.746094-.238281 8.613281-.714843l19.9375-3.152344.125-.019532c25.394531-4.234374 43.824219-26.011718 43.824219-51.777343v-222.699219l-185 30.765625zm0 57.003906c0 11.023438-7.863281 20.34375-18.707031 22.175782l-19.929688 3.148437-.121093.023438c-1.261719.207031-2.519532.316406-3.742188.316406-12.40625 0-22.5-10.09375-22.5-22.5 0-11.042969 7.890625-20.371094 18.71875-22.179687l46.28125-7.585938zm155-25.777343c0 11.023437-7.863281 20.34375-18.703125 22.175781l-19.933594 3.152344-.121093.019531c-1.261719.210937-2.519532.316406-3.742188.316406-12.40625 0-22.5-10.089843-22.5-22.5 0-11.039062 7.890625-20.371093 18.71875-22.175781l46.28125-7.589844zm0-187.296875v45.613281l-125 20.789063v-45.617188zm0 0"/><path d="m437.019531 74.980469c-48.351562-48.351563-112.640625-74.980469-181.019531-74.980469s-132.667969 26.628906-181.019531 74.980469c-48.351563 48.351562-74.980469 112.640625-74.980469 181.019531s26.628906 132.667969 74.980469 181.019531c48.351562 48.351563 112.640625 74.980469 181.019531 74.980469s132.667969-26.628906 181.019531-74.980469c48.351563-48.351562 74.980469-112.640625 74.980469-181.019531s-26.628906-132.667969-74.980469-181.019531zm-181.019531 407.019531c-124.617188 0-226-101.382812-226-226s101.382812-226 226-226 226 101.382812 226 226-101.382812 226-226 226zm0 0"/></svg>