<svg height="512pt" viewBox="0 -128 512 512" width="512pt" xmlns="http://www.w3.org/2000/svg"><path d="m116.140625 142.5 20.679687-20.679688c17.542969-17.546874 17.542969-46.09375 0-63.640624-8.5-8.5-19.800781-13.179688-31.820312-13.179688-5.191406 0-10.246094.871094-15 2.546875v-2.546875c0-24.8125-20.1875-45-45-45s-45 20.1875-45 45v165c0 24.8125 20.1875 45 45 45 15.300781 0 28.84375-7.675781 36.980469-19.382812l6.199219 6.203124c8.5 8.5 19.800781 13.179688 31.820312 13.179688s23.320312-4.679688 31.820312-13.179688c17.546876-17.546874 17.546876-46.09375 0-63.640624zm14.464844 78.105469c-2.832031 2.832031-6.597657 4.394531-10.605469 4.394531s-7.773438-1.5625-10.605469-4.394531l-49.394531-49.390625v38.785156c0 8.269531-6.730469 15-15 15s-15-6.730469-15-15v-165c0-8.269531 6.730469-15 15-15s15 6.730469 15 15v68.785156l34.394531-34.390625c2.832031-2.835937 6.597657-4.394531 10.605469-4.394531s7.773438 1.558594 10.605469 4.394531c5.847656 5.847657 5.847656 15.363281 0 21.210938l-41.890625 41.894531 56.890625 56.894531c5.847656 5.847657 5.847656 15.363281 0 21.210938zm0 0"/><path d="m386.140625 142.5 20.679687-20.679688c17.542969-17.546874 17.542969-46.09375 0-63.640624-8.5-8.5-19.800781-13.179688-31.820312-13.179688-5.191406 0-10.246094.871094-15 2.546875v-2.546875c0-24.8125-20.1875-45-45-45s-45 20.1875-45 45v165c0 24.8125 20.1875 45 45 45 15.300781 0 28.84375-7.675781 36.980469-19.382812l6.199219 6.203124c8.5 8.5 19.800781 13.179688 31.820312 13.179688s23.320312-4.679688 31.820312-13.179688c17.546876-17.546874 17.546876-46.09375 0-63.640624zm14.464844 78.105469c-2.832031 2.832031-6.597657 4.394531-10.605469 4.394531s-7.773438-1.5625-10.605469-4.394531l-49.394531-49.390625v38.785156c0 8.269531-6.730469 15-15 15s-15-6.730469-15-15v-165c0-8.269531 6.730469-15 15-15s15 6.730469 15 15v68.785156l34.394531-34.390625c2.832031-2.835937 6.597657-4.394531 10.605469-4.394531s7.773438 1.558594 10.605469 4.394531c5.847656 5.847657 5.847656 15.363281 0 21.210938l-41.890625 41.894531 56.890625 56.894531c5.847656 5.847657 5.847656 15.363281 0 21.210938zm0 0"/><path d="m467 97.5c-24.8125 0-45 20.1875-45 45s20.1875 45 45 45 45-20.1875 45-45-20.1875-45-45-45zm0 60c-8.269531 0-15-6.730469-15-15s6.730469-15 15-15 15 6.730469 15 15-6.730469 15-15 15zm0 0"/><path d="m210 45c-24.8125 0-45 20.1875-45 45v120c0 24.8125 20.1875 45 45 45s45-20.1875 45-45v-120c0-24.8125-20.1875-45-45-45zm15 165c0 8.269531-6.730469 15-15 15s-15-6.730469-15-15v-120c0-8.269531 6.730469-15 15-15s15 6.730469 15 15zm0 0"/></svg>