<svg height="512pt" viewBox="0 0 512 512" width="512pt" xmlns="http://www.w3.org/2000/svg"><path d="m437.019531 74.980469c-48.351562-48.351563-112.640625-74.980469-181.019531-74.980469s-132.667969 26.628906-181.019531 74.980469c-48.351563 48.351562-74.980469 112.640625-74.980469 181.019531s26.628906 132.667969 74.980469 181.019531c48.351562 48.351563 112.640625 74.980469 181.019531 74.980469s132.667969-26.628906 181.019531-74.980469c48.351563-48.351562 74.980469-112.640625 74.980469-181.019531s-26.628906-132.667969-74.980469-181.019531zm-181.019531 407.019531c-124.617188 0-226-101.382812-226-226s101.382812-226 226-226 226 101.382812 226 226-101.382812 226-226 226zm0 0"/><path d="m256 120c-8.667969 0-17.292969 1.238281-25.636719 3.6875l-18.722656 5.488281 10.121094 16.683594c2.117187 3.492187 3.238281 7.519531 3.238281 11.640625 0 12.40625-10.09375 22.5-22.5 22.5-4.121094 0-8.148438-1.121094-11.640625-3.238281l-16.683594-10.121094-5.492187 18.726563c-2.445313 8.339843-3.683594 16.964843-3.683594 25.632812 0 50.179688 40.820312 91 91 91s91-40.820312 91-91-40.820312-91-91-91zm0 152c-33.636719 0-61-27.363281-61-61 0-.511719.007812-1.023438.019531-1.535156 2.46875.355468 4.96875.535156 7.480469.535156 28.949219 0 52.5-23.550781 52.5-52.5 0-2.515625-.179688-5.011719-.535156-7.480469.511718-.011719 1.023437-.019531 1.535156-.019531 33.636719 0 61 27.363281 61 61s-27.363281 61-61 61zm0 0"/><path d="m256 60c-83.261719 0-151 67.738281-151 151 0 35.394531 12.507812 69.816406 35.230469 96.9375l115.769531 137.691406 115.785156-137.710937c22.707032-27.101563 35.214844-61.523438 35.214844-96.917969 0-83.261719-67.738281-151-151-151zm92.804688 228.632812-92.804688 110.378907-92.789062-110.359375c-18.191407-21.710938-28.210938-49.289063-28.210938-77.652344 0-66.71875 54.28125-121 121-121s121 54.28125 121 121c0 28.363281-10.019531 55.941406-28.195312 77.632812zm0 0"/></svg>