<svg height="512pt" viewBox="0 0 512 512" width="512pt" xmlns="http://www.w3.org/2000/svg"><path d="m437.019531 74.980469c-48.351562-48.351563-112.640625-74.980469-181.019531-74.980469s-132.667969 26.628906-181.019531 74.980469c-48.351563 48.351562-74.980469 112.640625-74.980469 181.019531s26.628906 132.667969 74.980469 181.019531c48.351562 48.351563 112.640625 74.980469 181.019531 74.980469s132.667969-26.628906 181.019531-74.980469c48.351563-48.351562 74.980469-112.640625 74.980469-181.019531s-26.628906-132.667969-74.980469-181.019531zm-181.019531 407.019531c-124.617188 0-226-101.382812-226-226s101.382812-226 226-226 226 101.382812 226 226-101.382812 226-226 226zm0 0"/><path d="m240.382812 291.851562c0-24.8125-20.1875-45-45-45s-45 20.1875-45 45 20.1875 45 45 45 45-20.1875 45-45zm-45 15c-8.273437 0-15-6.730468-15-15 0-8.269531 6.726563-15 15-15 8.269532 0 15 6.730469 15 15 0 8.269532-6.730468 15-15 15zm0 0"/><path d="m315.382812 246.851562c-24.8125 0-45 20.1875-45 45s20.1875 45 45 45 45-20.1875 45-45-20.1875-45-45-45zm0 60c-8.273437 0-15-6.730468-15-15 0-8.269531 6.726563-15 15-15 8.269532 0 15 6.730469 15 15 0 8.269532-6.730468 15-15 15zm0 0"/><path d="m255.921875 357.03125c-16.636719 0-33.035156-3.722656-46.179687-10.480469l-13.722657 26.675781c17.558594 9.035157 38.273438 13.808594 59.902344 13.808594 21.089844 0 41.367187-4.546875 58.644531-13.152344l-13.371094-26.851562c-12.957031 6.449219-29.035156 10-45.273437 10zm0 0"/><path d="m451.617188 261.851562c0-33.085937-26.914063-60-60-60-9.082032 0-17.878907 2.007813-25.90625 5.867188-26.0625-16.789062-57.664063-27.128906-91.210938-29.917969l7.933594-35.949219h20.527344c6.191406 17.457032 22.867187 30 42.421874 30 24.8125 0 45-20.1875 45-45s-20.1875-45-45-45c-19.554687 0-36.230468 12.539063-42.421874 30h-44.628907l-14.457031 65.515626c-35.90625 1.945312-69.878906 12.503906-97.585938 30.351562-8.027343-3.859375-16.824218-5.867188-25.90625-5.867188-33.085937 0-60 26.914063-60 60 0 18.71875 8.671876 36.101563 23.15625 47.363282-.027343.941406-.039062 1.882812-.039062 2.816406 0 36.847656 18.480469 71.21875 52.039062 96.785156 32.347657 24.644532 75.125 38.214844 120.460938 38.214844s88.113281-13.570312 120.460938-38.214844c33.558593-25.566406 52.039062-59.9375 52.039062-96.785156 0-.933594-.011719-1.875-.039062-2.816406 14.484374-11.261719 23.15625-28.644532 23.15625-47.363282zm-106.234376-150c8.269532 0 15 6.730469 15 15 0 8.269532-6.730468 15-15 15-8.273437 0-15-6.730468-15-15 0-8.269531 6.726563-15 15-15zm60.40625 176.449219-8.953124 4.8125 1.152343 10.097657c.339844 2.984374.511719 5.953124.511719 8.824218 0 57.894532-63.925781 105-142.5 105s-142.5-47.105468-142.5-105c0-2.871094.171875-5.839844.511719-8.824218l1.152343-10.097657-8.953124-4.8125c-9.765626-5.25-15.828126-15.382812-15.828126-26.449219 0-16.542968 13.457032-30 30-30 6.394532 0 12.503907 1.992188 17.660157 5.757813l8.859375 6.472656 8.851562-6.480469c26.925782-19.710937 62.527344-30.566406 100.246094-30.566406s73.320312 10.855469 100.246094 30.566406l8.851562 6.480469 8.859375-6.472656c5.15625-3.765625 11.265625-5.757813 17.660157-5.757813 16.542968 0 30 13.457032 30 30 0 11.066407-6.0625 21.199219-15.828126 26.449219zm0 0"/></svg>