<svg height="512pt" viewBox="0 0 512 512" width="512pt" xmlns="http://www.w3.org/2000/svg"><path d="m494.386719 291.429688c1.734375-11.742188 2.613281-23.636719 2.613281-35.429688 0-64.375-25.066406-124.894531-70.585938-170.414062-45.519531-45.515626-106.039062-70.585938-170.414062-70.585938-11.789062 0-23.683594.878906-35.425781 2.617188-21.628907-11.542969-45.910157-17.617188-70.574219-17.617188-82.710938 0-150 67.289062-150 150 0 24.664062 6.074219 48.945312 17.617188 70.574219-1.738282 11.742187-2.617188 23.636719-2.617188 35.425781 0 64.375 25.066406 124.894531 70.585938 170.414062 45.519531 45.519532 106.042968 70.585938 170.414062 70.585938 11.789062 0 23.683594-.878906 35.429688-2.617188 21.625 11.542969 45.90625 17.617188 70.570312 17.617188 82.710938 0 150-67.292969 150-150 0-24.660156-6.074219-48.941406-17.613281-70.570312zm-132.386719 190.570312c-21.203125 0-42.039062-5.605469-60.257812-16.207031l-4.703126-2.738281-5.363281.914062c-11.796875 2.011719-23.796875 3.03125-35.675781 3.03125-116.34375 0-211-94.652344-211-211 0-11.878906 1.019531-23.878906 3.03125-35.671875l.917969-5.363281-2.738281-4.703125c-10.605469-18.222657-16.210938-39.058594-16.210938-60.261719 0-66.167969 53.832031-120 120-120 21.203125 0 42.039062 5.605469 60.261719 16.210938l4.703125 2.734374 5.363281-.914062c11.792969-2.011719 23.792969-3.03125 35.671875-3.03125 116.347656 0 211 94.65625 211 211 0 11.878906-1.019531 23.882812-3.03125 35.671875l-.914062 5.367187 2.734374 4.703126c10.605469 18.222656 16.210938 39.058593 16.210938 60.257812 0 66.167969-53.832031 120-120 120zm0 0"/><path d="m391 195.996094c-.011719-57.894532-47.113281-104.996094-105-104.996094h-60c-57.894531 0-105 47.105469-105 105 0 30.160156 12.785156 57.398438 33.21875 76.566406-19.117188 5.191406-33.21875 22.699219-33.21875 43.4375.011719 57.898438 47.117188 104.996094 105 104.996094h60c57.898438 0 105-47.101562 105-105 0-30.160156-12.785156-57.394531-33.214844-76.5625 19.113282-5.191406 33.214844-22.699219 33.214844-43.441406zm-45 15.003906c-8.269531 0-15-6.726562-15-15 0-24.8125-20.1875-45-45-45h-60c-24.8125 0-45 20.1875-45 45s20.1875 45 45 45h60c41.355469 0 75 33.644531 75 75s-33.644531 75-75 75h-60c-41.34375 0-74.992188-33.644531-75-75 0-8.269531 6.730469-15 15-15 8.273438 0 15 6.730469 15 15 0 24.8125 20.1875 45 45 45h60c24.8125 0 45-20.1875 45-45s-20.1875-45-45-45h-60c-41.355469 0-75-33.644531-75-75s33.644531-75 75-75h60c41.347656 0 74.992188 33.648438 75 75 0 8.273438-6.726562 15-15 15zm-41.835938 1.574219c-5.902343-1.035157-11.972656-1.574219-18.164062-1.574219h-60c-8.269531 0-15-6.726562-15-15 0-8.269531 6.730469-15 15-15h60c8.273438 0 15 6.730469 15 15 0 5.851562 1.125 11.441406 3.164062 16.574219zm-96.324218 86.855469c5.898437 1.03125 11.96875 1.570312 18.160156 1.570312h60c8.273438 0 15 6.730469 15 15 0 8.273438-6.726562 15-15 15h-60c-8.269531 0-15-6.726562-15-15 0-5.847656-1.121094-11.441406-3.160156-16.570312zm0 0"/></svg>