<svg height="512pt" viewBox="0 -1 512.00099 512" width="512pt" xmlns="http://www.w3.org/2000/svg"><path d="m467.261719 345.03125c-33.230469 0-61.6875-21.445312-71.203125-52.289062 24.914062-13.507813 47.761718-30.582032 68.042968-50.863282 17.441407-17.441406 17.441407-45.824218 0-63.269531-8.453124-8.449219-19.6875-13.101563-31.636718-13.101563-11.949219 0-23.183594 4.652344-31.632813 13.101563-1.042969 1.042969-2.09375 2.074219-3.164062 3.09375v-40.03125c.003906-78.117187-63.550781-141.671875-141.667969-141.671875s-141.667969 63.554688-141.667969 141.671875v40.03125c-1.066406-1.019531-2.121093-2.050781-3.164062-3.089844-8.449219-8.453125-19.683594-13.105469-31.632813-13.105469-11.949218 0-23.183594 4.65625-31.636718 13.105469-17.441407 17.441407-17.441407 45.824219 0 63.269531 20.28125 20.28125 43.128906 37.351563 68.042968 50.863282-9.515625 30.84375-37.972656 52.289062-71.203125 52.289062-24.667969 0-44.738281 20.066406-44.738281 44.738282 0 24.667968 20.070312 44.734374 44.738281 44.734374 7.9375 0 15.914063-.375 23.859375-1.117187v24.5h14.914063c39.035156 0 57.386719 10.882813 78.640625 23.480469 21.859375 12.957031 46.636718 27.648437 93.847656 27.648437s71.988281-14.691406 93.851562-27.652343c21.25-12.597657 39.605469-23.480469 78.640626-23.480469h14.910156v-24.5c7.945312.746093 15.921875 1.121093 23.859375 1.121093 24.667969 0 44.738281-20.070312 44.738281-44.738281s-20.070312-44.738281-44.738281-44.738281zm0 59.652344c-12.128907 0-24.363281-.992188-36.371094-2.953125l-17.3125-2.824219v29.679688c-37.761719 2.714843-59.5 15.605468-78.9375 27.128906-21.25 12.597656-39.605469 23.476562-78.640625 23.476562s-57.386719-10.878906-78.640625-23.476562c-19.433594-11.523438-41.175781-24.414063-78.933594-27.132813v-29.675781l-17.316406 2.824219c-12.003906 1.957031-24.242187 2.953125-36.371094 2.953125-8.222656 0-14.910156-6.691406-14.910156-14.914063 0-8.222656 6.6875-14.914062 14.910156-14.914062 24.976563 0 49.136719-8.945313 68.035157-25.1875 18.6875-16.0625 31.125-38.257813 35.019531-62.496094l1.75-10.894531-9.902344-4.859375c-26.09375-12.804688-49.863281-29.839844-70.648437-50.628907-5.816407-5.8125-5.816407-15.273437 0-21.089843 2.816406-2.816407 6.558593-4.367188 10.542968-4.367188s7.730469 1.550781 10.546875 4.367188c9.398438 9.402343 19.679688 18.066406 30.554688 25.753906l23.519531 16.628906v-100.410156c0-61.671875 50.171875-111.847656 111.84375-111.847656s111.84375 50.175781 111.84375 111.847656v100.410156l23.523438-16.628906c10.875-7.6875 21.152343-16.351563 30.554687-25.753906 2.816406-2.816407 6.5625-4.367188 10.546875-4.367188 3.980469 0 7.726562 1.550781 10.542969 4.367188 2.816406 2.816406 4.367187 6.5625 4.367187 10.546875 0 3.980468-1.550781 7.726562-4.367187 10.542968-20.789063 20.789063-44.558594 37.820313-70.648438 50.628907l-9.902343 4.859375 1.75 10.890625c3.894531 24.238281 16.332031 46.4375 35.019531 62.5 18.894531 16.242187 43.058593 25.1875 68.035156 25.1875 8.222656 0 14.910156 6.691406 14.910156 14.914062 0 8.222657-6.691406 14.914063-14.914062 14.914063zm0 0"/></svg>