<svg height="512pt" viewBox="0 0 512 512" width="512pt" xmlns="http://www.w3.org/2000/svg"><path d="m437.019531 74.980469c-48.351562-48.351563-112.640625-74.980469-181.019531-74.980469s-132.667969 26.628906-181.019531 74.980469c-48.351563 48.351562-74.980469 112.640625-74.980469 181.019531 0 45.105469 11.835938 89.230469 34.285156 128.039062l-34.285156 127.960938 127.960938-34.285156c38.808593 22.449218 82.933593 34.285156 128.039062 34.285156 68.378906 0 132.667969-26.628906 181.019531-74.980469 48.351563-48.351562 74.980469-112.640625 74.980469-181.019531s-26.628906-132.667969-74.980469-181.019531zm-181.019531 407.019531c-41.753906 0-82.546875-11.480469-117.964844-33.203125l-5.496094-3.371094-90.113281 24.148438 24.144531-90.113281-3.367187-5.496094c-21.722656-35.417969-33.203125-76.210938-33.203125-117.964844 0-124.617188 101.382812-226 226-226s226 101.382812 226 226-101.382812 226-226 226zm0 0"/><path d="m256 60c-108.074219 0-196 87.925781-196 196 0 42.371094 13.867188 83.828125 39.199219 117.597656l-14.347657 53.550782 53.550782-14.351563c33.769531 25.332031 75.226562 39.203125 117.597656 39.203125 108.074219 0 196-87.925781 196-196s-87.925781-196-196-196zm0 362c-38.089844 0-75.300781-13.230469-104.78125-37.253906l-5.945312-4.847656-17.992188 4.820312 4.820312-17.992188-4.847656-5.945312c-24.023437-29.480469-37.253906-66.691406-37.253906-104.78125 0-91.53125 74.46875-166 166-166s166 74.46875 166 166-74.46875 166-166 166zm0 0"/><path d="m309.234375 246.605469-21.210937 21.210937-43.839844-43.839844 21.210937-21.210937-74.246093-74.246094-25.453126 25.453125c-18.789062 18.789063-25.546874 46.726563-19.03125 78.664063 6.058594 29.695312 23.109376 59.769531 48.019532 84.679687 31.5625 31.5625 71.726562 50.402344 107.441406 50.40625 22.5625 0 41.894531-7.40625 55.902344-21.417968l25.453125-25.453126zm27.578125 78.488281c-10.4375 10.4375-24.625 12.628906-34.6875 12.628906-27.933594-.003906-60.164062-15.5625-86.226562-41.621094-20.796876-20.796874-34.945313-45.464843-39.839844-69.460937-4.4375-21.746094-.585938-40.023437 10.847656-51.453125l4.242188-4.242188 31.820312 31.820313-21.210938 21.210937 86.265626 86.265626 21.210937-21.210938 31.820313 31.820312zm0 0"/></svg>